<svg width="800" height="946" viewBox="0 0 800 946" fill="none" xmlns="http://www.w3.org/2000/svg">
<g id="hot" clip-path="url(#clip0)">
<rect width="800" height="945.88" fill="white"/>
<path id="path822" d="M0 946H800V-24H0V946Z" fill="#EEE6D5"/>
<g id="sun">
<ellipse id="Ellipse 2" cx="356" cy="550.5" rx="128" ry="127.5" fill="#F7FA8A"/>
<circle id="Ellipse 3" cx="356" cy="550" r="150" fill="#F7FA8A" fill-opacity="0.6"/>
<circle id="Ellipse 4" cx="356" cy="550" r="200" fill="#F7FA8A" fill-opacity="0.28"/>
</g>
<g id="back-mountain">
<path id="path844" d="M79.2205 833L889 824.542L701.255 454.231C697.972 447.755 691.667 443.128 684.578 443.003C680.545 442.933 676.459 444.138 672.904 446.736L632.768 476.082C627.519 479.917 620.635 480.42 614.917 477.377L585.346 461.655C578.673 458.105 570.653 458.589 564.424 462.915L79.2205 802.894V833" fill="#EFD9A7"/>
<path id="path846" d="M726.809 512C695.364 512 667.084 525.971 647.499 548.216C629.675 566.236 618.606 591.325 618.606 619.087C618.606 625.056 619.147 630.892 620.124 636.572C599.441 645.791 584.373 665.742 581.439 689.614C577.224 688.729 572.869 688.265 568.404 688.265C552.03 688.265 537.114 694.542 525.674 704.826C517.843 686.649 500.197 673.955 479.654 673.955C467.051 673.955 455.555 678.757 446.724 686.638C439.946 666.222 421.209 651.518 399.094 651.518C383.648 651.518 369.845 658.7 360.601 669.983C350.396 655.084 333.59 645.319 314.539 645.319C312.483 645.319 310.461 645.452 308.461 645.67C292.083 611.226 257.726 587.502 217.984 587.502C197.823 587.502 179.067 593.639 163.318 604.156C160.345 600.419 157.13 596.896 153.722 593.58C143.354 582.875 130.646 574.589 116.457 569.575C104.384 564.921 91.3274 562.362 77.6837 562.362C16.5538 562.362 -33 613.418 -33 676.393C-33 739.372 16.5538 790.424 77.6837 790.424C104.051 790.424 128.252 780.909 147.262 765.05C165.446 783.554 190.409 795.004 217.984 795.004C248.971 795.004 276.675 780.577 295.147 757.895C301.206 760.185 307.719 761.5 314.539 761.5C333.59 761.5 350.396 751.739 360.601 736.836C369.845 748.118 383.648 755.301 399.094 755.301C411.696 755.301 423.193 750.498 432.027 742.617C438.802 763.033 457.539 777.737 479.654 777.737C488.947 777.737 497.626 775.096 505.097 770.57C511.819 800.224 537.58 822.333 568.404 822.333C601.543 822.333 628.834 796.795 632.893 763.79C637.104 764.671 641.463 765.14 645.924 765.14C670.7 765.14 692.198 750.845 703.187 729.848C710.791 731.62 718.69 732.579 726.809 732.579C785.936 732.579 833.861 683.205 833.861 622.29C833.861 561.379 785.936 512 726.809 512" fill="#F57742" fill-opacity="0.76"/>
</g>
<g id="med-mountain">
<g id="g906">
<path id="path912" d="M200.356 512L163.341 640.316L138.869 555.484L105.289 733.791L256.122 705.315L200.356 512Z" fill="#DF4E26"/>
<path id="path914" d="M633.03 661.238L612.646 731.9L575.467 603.001L522.859 785.38H678.176L633.03 661.238" fill="#DF4E26"/>
<g id="path916">
<path d="M286.537 636.981C282.951 636.981 279.369 637.031 275.794 637.136C202.487 639.145 130.965 663.498 67.2879 705.164L-342 973H752V957.532L603.621 787.499C519.527 691.127 405.467 636.981 286.537 636.981Z" fill="#F9B13C"/>
<path d="M286.537 636.981C282.951 636.981 279.369 637.031 275.794 637.136C202.487 639.145 130.965 663.498 67.2879 705.164L-342 973H752V957.532L603.621 787.499C519.527 691.127 405.467 636.981 286.537 636.981Z" fill="url(#paint0_linear)"/>
</g>
</g>
</g>
<g id="tree">
<g id="g860">
<g id="g862">
<path id="path868" d="M800 721L789.913 313H732.241L729.914 407.211L707.738 399.8L617.163 336.74L578 358.825L674.77 426.198L728.999 444.32L722.159 721H800" fill="#AC392E"/>
</g>
</g>
<g id="g884">
<g id="path890">
<path d="M931.433 142.64C918.717 139.365 905.766 139.52 894.046 142.45C901.127 138.934 906.697 133.349 909.233 126.286C914.735 110.983 904.002 94.6591 885.266 89.8326C882.004 88.9922 878.717 88.5785 875.482 88.5095C881.459 82.5023 886.128 75.4478 888.982 67.5099C900.642 35.0645 877.889 0.464522 838.164 -9.77458C812.66 -16.3464 786.405 -11.2355 767.755 1.82194C763.506 -16.9067 747.01 -33.2651 723.318 -39.3672C691.287 -47.624 657.827 -34.1442 646.218 -9.09809C628.95 -29.5892 600.708 -43 568.712 -43C516.125 -43 473.494 -6.90022 473.494 37.6287C473.494 43.1792 474.16 48.6046 475.426 53.8449C474.061 53.7759 472.713 53.6682 471.336 53.6682C431.937 53.6682 400 80.7139 400 114.073C400 137.589 415.904 157.917 439.069 167.897C415.604 180.575 400 202.764 400 228.082C400 267.517 437.756 299.489 484.334 299.489C495.724 299.489 506.581 297.554 516.49 294.085C515.486 297.049 514.915 300.165 514.915 303.402C514.915 322.005 532.724 337.084 554.696 337.084C564.832 337.084 574.055 333.847 581.08 328.564C573.256 338.256 568.665 349.969 568.665 362.595C568.665 395.959 600.605 423 640 423C679.399 423 711.345 395.959 711.345 362.595C711.345 357.596 710.546 352.766 709.19 348.12C727.446 345.767 743.41 337.596 754.353 325.858C766.021 332.899 780.256 337.084 795.675 337.084C835.069 337.084 867.015 310.042 867.015 276.679C867.015 269.349 865.393 262.355 862.569 255.852C870.581 250.995 877.22 244.531 881.67 236.774C886.008 238.92 890.673 240.73 895.711 242.027C929.313 250.689 964.554 235.46 974.415 208.013C984.281 180.571 965.038 151.302 931.433 142.64" fill="#DF4E26"/>
<path d="M931.433 142.64C918.717 139.365 905.766 139.52 894.046 142.45C901.127 138.934 906.697 133.349 909.233 126.286C914.735 110.983 904.002 94.6591 885.266 89.8326C882.004 88.9922 878.717 88.5785 875.482 88.5095C881.459 82.5023 886.128 75.4478 888.982 67.5099C900.642 35.0645 877.889 0.464522 838.164 -9.77458C812.66 -16.3464 786.405 -11.2355 767.755 1.82194C763.506 -16.9067 747.01 -33.2651 723.318 -39.3672C691.287 -47.624 657.827 -34.1442 646.218 -9.09809C628.95 -29.5892 600.708 -43 568.712 -43C516.125 -43 473.494 -6.90022 473.494 37.6287C473.494 43.1792 474.16 48.6046 475.426 53.8449C474.061 53.7759 472.713 53.6682 471.336 53.6682C431.937 53.6682 400 80.7139 400 114.073C400 137.589 415.904 157.917 439.069 167.897C415.604 180.575 400 202.764 400 228.082C400 267.517 437.756 299.489 484.334 299.489C495.724 299.489 506.581 297.554 516.49 294.085C515.486 297.049 514.915 300.165 514.915 303.402C514.915 322.005 532.724 337.084 554.696 337.084C564.832 337.084 574.055 333.847 581.08 328.564C573.256 338.256 568.665 349.969 568.665 362.595C568.665 395.959 600.605 423 640 423C679.399 423 711.345 395.959 711.345 362.595C711.345 357.596 710.546 352.766 709.19 348.12C727.446 345.767 743.41 337.596 754.353 325.858C766.021 332.899 780.256 337.084 795.675 337.084C835.069 337.084 867.015 310.042 867.015 276.679C867.015 269.349 865.393 262.355 862.569 255.852C870.581 250.995 877.22 244.531 881.67 236.774C886.008 238.92 890.673 240.73 895.711 242.027C929.313 250.689 964.554 235.46 974.415 208.013C984.281 180.571 965.038 151.302 931.433 142.64" fill="url(#paint1_linear)"/>
</g>
</g>
</g>
<g id="outer-mountain">
<path id="path938" d="M744.15 672.909C637.179 809.655 454.547 842.617 338.416 848.795C307.533 850.439 276.841 856.009 246.807 865.769L0 946H1095L874.129 670.764C860.562 653.861 843.577 642.693 825.296 638.656C795.719 632.125 765.835 645.188 744.15 672.909Z" fill="url(#paint2_linear)"/>
</g>
<g id="clouds">
<path id="path830" d="M350 178C346.701 142.406 323.919 114.836 296.262 114.836C282.809 114.836 270.517 121.395 261.045 132.186C246.214 94.6376 216.647 69 182.531 69C146.047 69 114.745 98.3053 101.132 140.151C99.1549 139.697 97.1393 139.419 95.0632 139.419C77.6279 139.419 63.1335 156.037 60 178H350" fill="#F0F5E1"/>
<path id="path828" d="M37.9455 397.756L73.0574 397.929C81.0556 382.931 95.766 372.925 112.655 373C137.699 373.128 158.161 395.373 159 423L101.233 422.722L66.7035 422.557L15 422.308C15.4263 408.664 25.5491 397.696 37.9455 397.756" fill="#F0F5E1"/>
</g>
</g>
<defs>
<linearGradient id="paint0_linear" x1="205" y1="973" x2="205" y2="636.981" gradientUnits="userSpaceOnUse">
<stop offset="0.359375" stop-color="#F5F93C" stop-opacity="0.54"/>
<stop offset="0.84375" stop-color="#FAC163"/>
</linearGradient>
<linearGradient id="paint1_linear" x1="688.5" y1="423" x2="688.5" y2="-43" gradientUnits="userSpaceOnUse">
<stop offset="0.223958" stop-color="#E39E33"/>
<stop offset="0.510417" stop-color="#DF4E26"/>
</linearGradient>
<linearGradient id="paint2_linear" x1="547.5" y1="946" x2="454.5" y2="637" gradientUnits="userSpaceOnUse">
<stop offset="0.209199" stop-color="#DF4E25"/>
<stop offset="0.55082" stop-color="#EC9F27"/>
</linearGradient>
<clipPath id="clip0">
<rect width="800" height="945.88" fill="white"/>
</clipPath>
</defs>
</svg>
